<svg xmlns="http://www.w3.org/2000/svg" viewBox="0 0 853.28 257.36"><defs><style>.cls-1{fill:#e1cd6b;}.cls-2{fill:#224a67;}.cls-3{fill:#254c66;}.cls-4{fill:#dfcc6a;}.cls-5{fill:#2d5167;}.cls-6{fill:#eaecea;}.cls-7{fill:#282825;}.cls-8{fill:#7a7b7b;}.cls-9{fill:#fff;}.cls-10{font-size:117px;font-family:Lato-LightItalic, Lato;font-weight:300;font-style:italic;}.cls-11{fill:#edefef;}.cls-12{fill:#eef0f1;}.cls-13{fill:#222;}.cls-14{fill:#e7e9ea;}.cls-15{fill:#262626;}.cls-16{fill:#262625;}</style></defs><g id="GO"><path id="O" class="cls-1" d="M638.3,96.69c-2.08.08-4.15.24-6.22.24q-71.49,0-143,0a36,36,0,0,0-12.24,1.87c-8.2,2.93-14.23,8.44-18.58,15.83a70.37,70.37,0,0,0-4,8.16,33.48,33.48,0,0,0-2.65,13,112.6,112.6,0,0,1-9.21,43.29,104.9,104.9,0,0,1-20.67,31.49,101,101,0,0,1-23.43,18.13,111.77,111.77,0,0,1-42.53,13.93,128.81,128.81,0,0,1-21.52,1.06c-19.93-1-38.85-5.53-56.19-15.71a102.21,102.21,0,0,1-37.41-37.68A109.35,109.35,0,0,1,227.49,154a104.52,104.52,0,0,1-1.37-12.36c-.24-4.94-.13-9.91-.13-14.87,0-12.78,2.82-25,7.28-36.93a103.06,103.06,0,0,1,44.19-52.57,110.49,110.49,0,0,1,40.38-14.33,137.74,137.74,0,0,1,21-1.7q63.81.06,127.63.07c20.95,0,41.91-.35,62.85.16,34.85.85,69.7.19,104.55.53,1.27,0,2.54.2,3.81.31a37.36,37.36,0,0,0-.49,4.19c0,6.6,0,13.2,0,19.8q0,12.51,0,25c0,6.79,0,13.58-.12,20.36A11.77,11.77,0,0,0,638.3,96.69ZM341.76,217.53c49.34-1.85,85.5-42.68,83.57-89.47a86.11,86.11,0,1,0-172,8.33C256.08,183.8,295.65,218.66,341.76,217.53Z"/><path id="G" class="cls-2" d="M160.59,197.81V165.64a32.5,32.5,0,0,0-3.31-.39c-5.44,0-10.88,0-16.32,0a26.89,26.89,0,0,1-4.31-.2c-4.33-.69-7.39-3.76-7.47-8.08-.17-9.25-.05-18.51-.05-28a15.14,15.14,0,0,1,2.38-.4q36.24,0,72.47,0a18.61,18.61,0,0,1,2.07.24,20.16,20.16,0,0,1,.4,2.79q0,43.42,0,86.86c0,.48-.09,1-.17,1.73-.82.68-1.74,1.54-2.76,2.25-14.17,9.84-29.91,15.75-46.85,18.62a186.44,186.44,0,0,1-36.31,2.57c-31-.84-57.75-11.72-79.14-34.47C26.38,193.28,17.47,174.39,13.86,153A121.81,121.81,0,0,1,17.3,96.08c10.1-32.75,31.54-55,63.56-67,18.1-6.78,37-8.65,56.17-7.39a130.09,130.09,0,0,1,35.12,7.13A100.68,100.68,0,0,1,204,47.05c1.32,1.12,2.82,2.09,3.76,3.86-2,3.08-4,6.16-6,9.22-3,4.54-5.87,9.17-9.05,13.57-4.36,6-10.56,7.49-17.39,4.38-1.3-.59-2.52-1.37-3.79-2.06-3.37-1.83-6.7-3.73-10.12-5.47a66.94,66.94,0,0,0-27.64-7.15c-6.7-.29-13.42-.54-20.1.65-20.32,3.63-34.51,15.06-43,33.7a75.6,75.6,0,0,0-6.33,25c-1.38,15.68.06,31,6.41,45.58,5.41,12.38,13.71,22.26,25.66,28.86a58.56,58.56,0,0,0,23.23,7.1,84.07,84.07,0,0,0,39.52-5.59A11.44,11.44,0,0,0,160.59,197.81Z"/></g><g id="Compass"><path class="cls-3" d="M425.33,128.05c1.92,46.8-34.24,87.63-83.57,89.47-46.11,1.14-85.68-33.72-88.45-81.13a86.12,86.12,0,1,1,172-8.34Zm-5.48,5.28a3.52,3.52,0,0,0-.19-4.29h-5.81c-.6,1.74-.93,3.05.71,4.84l1-1.82Zm-11.54-1.54a68.89,68.89,0,0,0-69-69.43c-38.1-.14-68.74,31-69.11,68.38-.36,36.39,28.46,69.49,68.78,69.67A68.69,68.69,0,0,0,408.31,131.79ZM342.14,57.87a13.39,13.39,0,0,0,.12-7.16L340,52.66c-1.18-.16-1.57-2.19-3.27-1.23a14.12,14.12,0,0,0,.05,5.72c2,.58,1.08-1.68,2.21-1.74Zm-.2,153.07a11.41,11.41,0,0,1-.76-2,21.15,21.15,0,0,1-.19-2.89l-3.1.43c-1.11,2.39.31,3.18,1.2,4.18-.29.17-.57.31-.82.49s-.44.38-.66.58C339.66,213.49,339.66,213.49,341.94,210.94Zm-77.46-79.87,2.38-1.46c-3-2.5-4.38-2.9-7.28-2.14l1.86,1.67-2.07,2.43,2.23,1.14c-.57,1.33-2.5,1.39-1.34,3.24,2.13-.51,4.4-.74,6.4-2.48C265.82,132.56,265.22,131.89,264.48,131.07Z"/><path class="cls-4" d="M339.33,62.37a69,69,0,1,1-.34,138c-40.31-.18-69.13-33.28-68.77-69.67C270.59,93.31,301.23,62.22,339.33,62.37Zm-23.6,43.85-1-.13.49.68,1,.63.28-.31C316.21,106.8,316,106.51,315.73,106.22Zm49.62.44-1,.93C363,107,362,108,361,108.67c-5.07,3.19-10.12,6.41-15.17,9.61a16.65,16.65,0,0,1-.69-2.25c-.46-3.14-.82-6.3-1.29-9.44q-1.78-12-3.68-24a9.34,9.34,0,0,0-1.13-2.1c-.58,3.3-1.09,5.76-1.41,8.25-.77,6-1.37,12-2.18,18-.48,3.62-1.23,7.2-1.85,10.8-1.5-.91-3-1.8-4.47-2.75-3.34-2.18-6.64-4.42-10-6.56-.56-.36-1.37-.35-3.06-.73,1.57,2,2.48,3.29,3.49,4.48,3.1,3.65,6.26,7.25,9.32,10.93a9.64,9.64,0,0,1,1,2.54c-13.63,2-26.89,3.59-40.08,5.84,4.14,1.48,8.47,1.5,12.69,2.11,4.42.63,8.86,1.05,13.29,1.63,4.14.54,8.4.49,12.82,2-1.6,2.12-3,3.87-4.27,5.66-2.54,3.46-5.05,7-7.56,10.44a1.37,1.37,0,0,0-.6.47c-.36.58-.73,1.16-1.09,1.75-.06.31-.11.62-.17.93l.61-.48.83-.71,1.16-1.14c1.92-1.36,3.86-2.68,5.76-4.07,3.41-2.5,6.81-5,10.21-7.57,2,13.1,3.37,26.3,5.51,40.08a8.25,8.25,0,0,0,1-1.8c1.1-7.24,2.13-14.49,3.25-21.72.88-5.66,1.87-11.3,2.8-16.94.77.53,1.58,1,2.3,1.62,4.36,3.61,8.69,7.25,13,10.89a3.66,3.66,0,0,0,2.89,2.24l.74.56-.55-.75c-.22-1.78-1.41-2.89-2.72-3.91-1.32-1.8-2.63-3.6-4-5.38s-2.58-3.25-3.8-4.92-3-3.22-3.71-5.72c4.7-.57,9.1-1.11,13.51-1.63s8.89-.82,13.29-1.56,8.85-.34,13.69-2.22l-38.45-5.63c-.13,0-.25-.17-.34-.29a4.07,4.07,0,0,1-.38-.59,21.89,21.89,0,0,1,1.39-2.29c1.66-2.14,3.42-4.2,5.07-6.35,2.13-2.76,4.18-5.59,6.27-8.39.34-.3.68-.6,1-.91l.08-.1Z"/><path class="cls-3" d="M261.44,129.15l-1.86-1.67c2.91-.76,4.33-.36,7.28,2.13l-2.38,1.47,2.18,2.4c-2,1.73-4.27,2-6.39,2.48-1.16-1.86.76-1.92,1.34-3.25l-2.24-1.13Z"/><path class="cls-3" d="M342.14,57.87,339,55.42c-1.12,0-.23,2.31-2.2,1.73a14.07,14.07,0,0,1-.06-5.71c1.7-1,2.09,1.06,3.28,1.23l2.21-2A13.25,13.25,0,0,1,342.14,57.87Z"/><path class="cls-3" d="M413.85,129.05h5.82a3.5,3.5,0,0,1,.18,4.28l-4.29-1.27-1,1.82C412.92,132.09,413.26,130.78,413.85,129.05Z"/><path class="cls-3" d="M337.89,206.49l3.11-.44a21.21,21.21,0,0,0,.18,2.89,11.41,11.41,0,0,0,.76,2c-2.27,2.56-2.27,2.56-4.33.79.22-.19.43-.41.67-.58a9.1,9.1,0,0,1,.81-.48C338.2,209.66,336.78,208.87,337.89,206.49Z"/><path class="cls-5" d="M345.83,118.28c5.05-3.2,10.1-6.42,15.17-9.61,1-.64,1.95-1.72,3.4-1.08l-.08-.07c-2.09,2.8-4.14,5.63-6.27,8.39-1.65,2.15-3.41,4.21-5.07,6.35a21.89,21.89,0,0,0-1.39,2.29,4.07,4.07,0,0,0,.38.59c.09.12.21.27.34.29l38.45,5.63c-4.84,1.88-9.37,1.5-13.69,2.22s-8.86,1-13.29,1.56-8.81,1.06-13.51,1.63c.7,2.5,2.44,4,3.71,5.72s2.55,3.27,3.8,4.92,2.65,3.58,4,5.38l-.36,1.86c-4.35-3.64-8.68-7.28-13-10.89-.72-.6-1.53-1.09-2.3-1.62.21-1.9.45-3.79.62-5.68.15-1.58.23-3.16.34-4.74l-.48-5.16C346.3,123.6,346.06,120.94,345.83,118.28Z"/><path class="cls-5" d="M333.5,142.22c-3.4,2.53-6.8,5.07-10.21,7.57-1.9,1.39-3.84,2.71-5.76,4.06l-.74-.81c2.51-3.48,5-7,7.56-10.44,1.31-1.79,2.67-3.54,4.27-5.66-4.42-1.47-8.68-1.42-12.82-2-4.43-.58-8.87-1-13.29-1.63-4.22-.61-8.55-.63-12.69-2.11,13.19-2.25,26.45-3.88,40.08-5.84a9.64,9.64,0,0,0-1-2.54c-3.06-3.68-6.22-7.28-9.32-10.93-1-1.19-1.92-2.46-3.49-4.48,1.69.38,2.5.37,3.06.73,3.37,2.14,6.67,4.38,10,6.56,1.46,1,3,1.84,4.46,2.75-.12,2.18-.25,4.35-.39,6.53-.15,2.49-.33,5-.5,7.46a21.71,21.71,0,0,0,.7,7.93A10.06,10.06,0,0,1,333.5,142.22Z"/><path class="cls-6" d="M332.7,131.48c.17-2.49.35-5,.5-7.46.14-2.18.27-4.35.39-6.53.63-3.6,1.38-7.18,1.86-10.8.81-6,1.41-12,2.18-18,.32-2.49.83-4.95,1.41-8.25a9.34,9.34,0,0,1,1.13,2.1q1.89,12,3.68,24c.47,3.14.83,6.3,1.29,9.44a16.65,16.65,0,0,0,.69,2.25c.23,2.66.47,5.32.7,8l.48,5.16Z"/><path class="cls-7" d="M332.7,131.48l14.31-.06c-.11,1.58-.19,3.16-.34,4.74-.17,1.89-.41,3.78-.62,5.68-.93,5.64-1.92,11.28-2.8,16.94-1.12,7.23-2.15,14.48-3.25,21.72a8.25,8.25,0,0,1-1,1.8c-2.14-13.78-3.48-27-5.51-40.08a10.06,10.06,0,0,0-.1-2.81A21.71,21.71,0,0,1,332.7,131.48Z"/><path class="cls-8" d="M361.39,154.35l.36-1.86c1.31,1,2.5,2.13,2.72,3.91l-.19.19A3.66,3.66,0,0,1,361.39,154.35Z"/><path class="cls-8" d="M315.09,155.26l1.1-1.75.18,1.49-.83.71C315.39,155.55,315.25,155.4,315.09,155.26Z"/><path class="cls-5" d="M365.34,106.61l-1,.91.08.07,1-.93Z"/><path class="cls-8" d="M315.74,106.22l.71.87-.28.31-1-.63C315.38,106.6,315.56,106.41,315.74,106.22Z"/><polygon class="cls-5" points="365.35 106.66 365.41 106.5 365.34 106.61 365.35 106.66"/><path class="cls-8" d="M315.19,106.77l-.49-.68,1,.13C315.56,106.41,315.38,106.6,315.19,106.77Z"/><path class="cls-5" d="M316.37,155l-.18-1.49a1.37,1.37,0,0,1,.6-.47l.74.81C317.15,154.24,316.76,154.62,316.37,155Z"/><path class="cls-8" d="M315.54,155.71l-.61.48c.06-.31.11-.62.17-.93C315.25,155.4,315.39,155.55,315.54,155.71Z"/><path class="cls-8" d="M364.47,156.4l.55.75-.74-.56Z"/><path class="cls-9" d="M336.92,50.82a.23.23,0,0,1,.08.07L341.58,57a2.81,2.81,0,0,1,0-.29V50.8H342v7.07h-.25a.2.2,0,0,1-.18-.1L337,51.63c0,.1,0,.2,0,.29v5.95h-.44V50.8h.25A.2.2,0,0,1,336.92,50.82Z"/><path class="cls-9" d="M418.65,126.81v.42h-3.72v2.86H418v.42h-3.1v3h3.72v.42h-4.24v-7.07Z"/><path class="cls-9" d="M340,206.76a.14.14,0,0,1-.13.08.31.31,0,0,1-.17-.09,1.76,1.76,0,0,0-.71-.41,1.81,1.81,0,0,0-.65-.1,2,2,0,0,0-.68.11,1.4,1.4,0,0,0-.49.3,1.15,1.15,0,0,0-.3.44,1.36,1.36,0,0,0-.11.53,1,1,0,0,0,.16.59,1.27,1.27,0,0,0,.4.4,2.52,2.52,0,0,0,.57.28l.65.22c.22.07.44.16.65.24a2.15,2.15,0,0,1,.57.34,1.37,1.37,0,0,1,.4.49,1.46,1.46,0,0,1,.16.73,2.31,2.31,0,0,1-.15.83,2,2,0,0,1-.45.69,2.05,2.05,0,0,1-.71.45,2.42,2.42,0,0,1-1,.17,2.62,2.62,0,0,1-1.2-.25,2.9,2.9,0,0,1-.89-.67l.14-.22a.19.19,0,0,1,.14-.08.22.22,0,0,1,.12.06l.17.15a1.83,1.83,0,0,0,.24.19,1.93,1.93,0,0,0,.32.19,2.41,2.41,0,0,0,.43.15,2.26,2.26,0,0,0,.55.06,2.18,2.18,0,0,0,.75-.13,1.62,1.62,0,0,0,.55-.35,1.33,1.33,0,0,0,.35-.52,1.75,1.75,0,0,0,.12-.65,1.19,1.19,0,0,0-.15-.62,1.39,1.39,0,0,0-.4-.4,2.5,2.5,0,0,0-.57-.27l-.65-.22c-.23-.07-.45-.15-.66-.23a2.33,2.33,0,0,1-.57-.34,1.53,1.53,0,0,1-.4-.5,1.72,1.72,0,0,1-.15-.76,1.79,1.79,0,0,1,.13-.68,1.67,1.67,0,0,1,.4-.59,2.05,2.05,0,0,1,.64-.4,2.42,2.42,0,0,1,.88-.15,2.76,2.76,0,0,1,1,.17,2.36,2.36,0,0,1,.8.54Z"/><path class="cls-9" d="M257.45,126.81h.42a.18.18,0,0,1,.19.13l1.78,5.82a1.29,1.29,0,0,1,.05.21,2,2,0,0,1,.05.24A2,2,0,0,0,260,133c0-.07,0-.15.06-.21l2-5.82.07-.09a.19.19,0,0,1,.12,0h.14a.16.16,0,0,1,.12,0,.22.22,0,0,1,.07.09l2,5.82q0,.09.06.21a1.55,1.55,0,0,1,.05.23c0-.08,0-.15.05-.23a1.29,1.29,0,0,1,0-.21l1.78-5.82a.18.18,0,0,1,.07-.09.17.17,0,0,1,.12,0h.39l-2.22,7.07h-.46l-2.09-6.14a1.82,1.82,0,0,1-.07-.25c0,.09-.05.17-.07.25l-2.1,6.14h-.45Z"/></g><g id="Market"><text class="cls-10" transform="translate(504 217.55)">WEST</text></g><g id="Checkers"><path class="cls-11" d="M637.2,46.3l24.8-.16-.11-.1q0,12.52,0,25.06l.12,0-17.63.19-7.14.08Q637.22,58.81,637.2,46.3Z"/><path class="cls-12" d="M787.17,46.14c6.64.08,13.28.19,19.93.24,1.88,0,3.76-.16,5.65-.25l-.1-.08c-.14.28-.4.56-.4.85q0,11.67,0,23.34a2.75,2.75,0,0,0,.34.88l.13-.13H787.2l.09.13V46Z"/><path class="cls-13" d="M711.82,46.14l25-.09c.08,4.09.23,8.19.23,12.29,0,4.26-.14,8.52-.22,12.77L711.8,71l.11.14V46.05Z"/><path class="cls-13" d="M787.29,46V71.11h-24.6a27.32,27.32,0,0,1-.38-3.1c-.06-7.32-.07-14.65-.09-22Z"/><path class="cls-14" d="M761.83,70.73l-1,.28Z"/><path class="cls-14" d="M738.75,71l-.94-.14Z"/><path class="cls-13" d="M837.7,46c-.12,1.41-.33,2.82-.34,4.24,0,5.69,0,11.38,0,17.07,0,1.25.22,2.5.33,3.75l-25.06,0a2.75,2.75,0,0,1-.34-.88q-.06-11.67,0-23.34c0-.29.26-.57.4-.85Z"/><path class="cls-13" d="M661.9,71.1q0-12.52,0-25.06a24.44,24.44,0,0,0,2.81.33q11.13-.09,22.27-.24l-.12-.09a30.11,30.11,0,0,1,.33,3.28q.06,9.49,0,19a24.5,24.5,0,0,1-.32,2.8L687,71Z"/><path class="cls-12" d="M686.86,71.11a24.5,24.5,0,0,0,.32-2.8q0-9.5,0-19a30.11,30.11,0,0,0-.33-3.28c1.25.12,2.5.33,3.75.34q9,0,18,0c1.09,0,2.18-.22,3.27-.33v24l-1,.92H688.83l-.94-.12Z"/><path class="cls-14" d="M710.92,71l1-.92v1Z"/><path class="cls-14" d="M687.89,70.9l.94.12Z"/><path class="cls-13" d="M812.76,71c-.13,1.57-.34,3.14-.36,4.72,0,5.7,0,11.4,0,17.11,0,1.56-.28,3.12-.43,4.68l-23.83.21c-1.12-1.35-.85-3-.85-4.52q0-11.11-.06-22.21Z"/><path class="cls-15" d="M761.83,70.73a17.74,17.74,0,0,1,.42,2.79c0,6.7,0,13.4,0,20.1,0,1.43.16,2.89-.87,4.1l-23.8-.16a46.55,46.55,0,0,1-.47-4.69c-.06-5.72,0-11.43,0-17.15,0-1.57-.22-3.15-.34-4.73l1.06-.12.94.14h22.09Z"/><path class="cls-12" d="M736.75,71c.12,1.58.33,3.16.34,4.73,0,5.72,0,11.43,0,17.15a46.55,46.55,0,0,0,.47,4.69,37.13,37.13,0,0,1-3.78.35c-7.45,0-14.91-.12-22.36-.2a27.93,27.93,0,0,0,.67-4.11c.07-6.62,0-13.24,0-19.85A22,22,0,0,0,711.8,71l25.08.14Z"/><path class="cls-14" d="M687.63,97.47a10.15,10.15,0,0,1-1.86.35q-12.12,0-24.24-.13a20.44,20.44,0,0,0,.55-3.25c0-7.8,0-15.59-.06-23.39l-.12,0L687,71c.09,1.57.26,3.14.26,4.71,0,5.69,0,11.37,0,17.06C687.26,94.34,687.5,95.91,687.63,97.47Z"/><path class="cls-13" d="M687.63,97.47c-.13-1.56-.37-3.13-.38-4.69,0-5.69,0-11.37,0-17.06,0-1.57-.17-3.14-.26-4.71l-.09.1,1-.21.94.12h22.09l1,.09L711.8,71a22,22,0,0,1,.34,2.78c0,6.61.06,13.23,0,19.85a27.93,27.93,0,0,1-.67,4.11c-5.24-.08-10.48-.17-15.72-.23C693,97.45,690.33,97.47,687.63,97.47Z"/><path class="cls-13" d="M662,71.05c0,7.8.08,15.59.06,23.39a20.44,20.44,0,0,1-.55,3.25l-17.63-.21c-1.9,0-3.83.16-5.6-.79a11.77,11.77,0,0,1-1.17-5c.11-6.78.09-13.57.12-20.36l7.14-.08Z"/><path class="cls-12" d="M762.22,46l.11.11-.15-24.67c2.69-.11,5.38-.3,8.07-.32,5.87,0,11.74,0,17.61.05a40.39,40.39,0,0,0-.58,4.63c-.09,6.76-.08,13.53-.11,20.3l.12-.1Z"/><path class="cls-13" d="M762.18,21.48l.15,24.67H736.76c.12-1.74.32-3.47.35-5.21.11-6.53.18-13.06.26-19.58Z"/><path class="cls-12" d="M661.76,21.24l25.61.15q-.07,6-.17,11.9-.11,6.42-.23,12.84-11.15.13-22.27.24a24.44,24.44,0,0,1-2.81-.33l.11.1c0-7.68.09-15.35.11-23A10.35,10.35,0,0,0,661.76,21.24Z"/><path class="cls-13" d="M687,46.13q.12-6.42.23-12.84.1-5.94.17-11.9l24.35-.18a19,19,0,0,1,.59,3.22q.08,9.72,0,19.45a10.9,10.9,0,0,1-.49,2.26l.09-.09c-1.09.11-2.18.32-3.27.33q-9,0-18,0c-1.25,0-2.5-.22-3.75-.34Z"/><path class="cls-12" d="M711.82,46.14a10.9,10.9,0,0,0,.49-2.26q.06-9.74,0-19.45a19,19,0,0,0-.59-3.22l25.65.15c-.08,6.52-.15,13-.26,19.58,0,1.74-.23,3.47-.35,5.21l.11-.1Z"/><path class="cls-16" d="M661.76,21.24a10.35,10.35,0,0,1,.35,1.88c0,7.67-.07,15.34-.11,23l-24.8.16c0-6.6-.06-13.2,0-19.8a37.36,37.36,0,0,1,.49-4.19c1.54-1,3.28-1,5-1C649.05,21.3,655.4,21.26,661.76,21.24Z"/><path class="cls-12" d="M788.11,97.71H761.4c1-1.21.87-2.67.87-4.1,0-6.7,0-13.4,0-20.1a17.74,17.74,0,0,0-.42-2.79l-1,.28H738.75l-.94-.14-1.06.12.13.12c.08-4.25.22-8.51.22-12.77,0-4.1-.15-8.2-.23-12.29l-.11.1h25.57l-.11-.11c0,7.32,0,14.65.09,22a27.32,27.32,0,0,0,.38,3.1h24.6L787.2,71q0,11.1.06,22.21C787.26,94.74,787,96.36,788.11,97.71Z"/></g></svg>